<svg xmlns="http://www.w3.org/2000/svg" viewBox="0.8500000238418579 14.149999618530273 324.3999938964844 45.599998474121094" data-asc="0.984" width="324.3999938964844" height="45.599998474121094"><defs/><g><g fill="#000000"><g transform="translate(0, 0)"><path d="M12.10 59.75Q8.85 59.75 6.33 59.08Q3.80 58.40 2.33 57Q0.85 55.60 0.85 53.40Q0.85 51.90 1.83 50.65Q2.80 49.40 4.70 48.45L4.70 48.25Q3.65 47.55 2.92 46.55Q2.20 45.55 2.20 44Q2.20 42.75 3.03 41.50Q3.85 40.25 5.15 39.35L5.15 39.15Q3.80 38.25 2.85 36.60Q1.90 34.95 1.90 32.80Q1.90 29.80 3.38 27.80Q4.85 25.80 7.28 24.80Q9.70 23.80 12.50 23.80Q14.80 23.80 16.60 24.40L26.65 24.40L26.65 29.80L21.65 29.80Q22.10 30.35 22.43 31.23Q22.75 32.10 22.75 33.05Q22.75 35.90 21.38 37.73Q20 39.55 17.70 40.45Q15.40 41.35 12.50 41.35Q11.80 41.35 10.90 41.23Q10 41.10 9.10 40.85Q8.50 41.25 8.25 41.65Q8 42.05 8 42.70Q8 43.65 9.03 44.10Q10.05 44.55 12.20 44.55L16.80 44.55Q21.70 44.55 24.28 46Q26.85 47.45 26.85 50.80Q26.85 53.40 25.05 55.43Q23.25 57.45 19.93 58.60Q16.60 59.75 12.10 59.75M12.50 36.90Q13.55 36.90 14.40 36.45Q15.25 36 15.75 35.08Q16.25 34.15 16.25 32.80Q16.25 31.50 15.75 30.60Q15.25 29.70 14.40 29.23Q13.55 28.75 12.50 28.75Q11.50 28.75 10.65 29.23Q9.80 29.70 9.30 30.60Q8.80 31.50 8.80 32.80Q8.80 34.15 9.30 35.08Q9.80 36 10.65 36.45Q11.50 36.90 12.50 36.90M13.15 55.10Q15.15 55.10 16.65 54.70Q18.15 54.30 19 53.63Q19.85 52.95 19.85 52.10Q19.85 50.85 18.75 50.53Q17.65 50.20 15.50 50.20L12.40 50.20Q11.05 50.20 10.18 50.10Q9.30 50 8.60 49.85Q7.65 50.45 7.25 51.03Q6.85 51.60 6.85 52.30Q6.85 53.65 8.55 54.38Q10.25 55.10 13.15 55.10ZM32.05 49.20L32.05 14.15L39.40 14.15L39.40 34.40L39.60 34.40L48.70 24.40L56.75 24.40L39.40 42.95L39.40 49.20L32.05 49.20M49.55 49.20L42.35 37.95L46.55 33.40L57.50 49.20L49.55 49.20ZM69.45 49.80Q66.95 49.80 65.13 48.80Q63.30 47.80 62.30 46.10Q61.30 44.40 61.30 42.30Q61.30 38.15 65.08 35.95Q68.85 33.75 77.65 33.25Q77.50 32.10 76.90 31.30Q76.30 30.50 75.17 30.08Q74.05 29.65 72.35 29.65Q71.15 29.65 69.95 29.93Q68.75 30.20 67.47 30.73Q66.20 31.25 64.80 31.95L62.20 27.15Q63.90 26.15 65.78 25.40Q67.65 24.65 69.67 24.23Q71.70 23.80 73.80 23.80Q77.30 23.80 79.80 25.03Q82.30 26.25 83.65 28.73Q85 31.20 85 35L85 49.20L79 49.20L78.45 46.40L78.25 46.40Q76.40 47.80 74.15 48.80Q71.90 49.80 69.45 49.80M71.80 44.10Q73.45 44.10 74.90 43.43Q76.35 42.75 77.65 41.75L77.65 37.65Q74 37.85 71.97 38.40Q69.95 38.95 69.15 39.80Q68.35 40.65 68.35 41.75Q68.35 42.50 68.78 43.05Q69.20 43.60 69.97 43.85Q70.75 44.10 71.80 44.10ZM94.05 49.20L94.05 24.40L100.05 24.40L100.65 29.80L100.80 29.80Q102.65 26.75 105.28 25.28Q107.90 23.80 110.85 23.80Q112.50 23.80 113.53 24.05Q114.55 24.30 115.65 24.80L114.15 30.95Q113 30.60 112.08 30.43Q111.15 30.25 109.75 30.25Q107.45 30.25 105.22 31.60Q103 32.95 101.40 36.30L101.40 49.20L94.05 49.20ZM129.45 49.80Q126.95 49.80 125.13 48.80Q123.30 47.80 122.30 46.10Q121.30 44.40 121.30 42.30Q121.30 38.15 125.08 35.95Q128.85 33.75 137.65 33.25Q137.50 32.10 136.90 31.30Q136.30 30.50 135.18 30.08Q134.05 29.65 132.35 29.65Q131.15 29.65 129.95 29.93Q128.75 30.20 127.47 30.73Q126.20 31.25 124.80 31.95L122.20 27.15Q123.90 26.15 125.78 25.40Q127.65 24.65 129.68 24.23Q131.70 23.80 133.80 23.80Q137.30 23.80 139.80 25.03Q142.30 26.25 143.65 28.73Q145 31.20 145 35L145 49.20L139 49.20L138.45 46.40L138.25 46.40Q136.40 47.80 134.15 48.80Q131.90 49.80 129.45 49.80M131.80 44.10Q133.45 44.10 134.90 43.43Q136.35 42.75 137.65 41.75L137.65 37.65Q134 37.85 131.97 38.40Q129.95 38.95 129.15 39.80Q128.35 40.65 128.35 41.75Q128.35 42.50 128.78 43.05Q129.20 43.60 129.97 43.85Q130.75 44.10 131.80 44.10ZM150 49.20L150 24.40L155.55 24.40L156.05 27.45L156.25 27.45Q156.95 25.95 158.20 24.88Q159.45 23.80 161.60 23.80Q163.20 23.80 164.35 24.83Q165.50 25.85 165.90 27.85Q166.60 26.15 167.93 24.98Q169.25 23.80 171.40 23.80Q174.05 23.80 175.50 25.95Q176.95 28.10 176.95 31.80L176.95 49.20L169.95 49.20L169.95 32.30Q169.95 30.05 168.60 30.05Q167.90 30.05 167.38 30.63Q166.85 31.20 166.35 32.45L166.35 49.20L160.60 49.20L160.60 32.30Q160.60 31.15 160.25 30.60Q159.90 30.05 159.20 30.05Q158.50 30.05 158 30.63Q157.50 31.20 157 32.45L157 49.20L150 49.20ZM181.85 58.40L181.85 24.40L187.85 24.40L188.40 26.90L188.55 26.90Q190.10 25.55 192.03 24.68Q193.95 23.80 195.95 23.80Q199.05 23.80 201.28 25.35Q203.50 26.90 204.70 29.75Q205.90 32.60 205.90 36.40Q205.90 40.65 204.38 43.65Q202.85 46.65 200.40 48.23Q197.95 49.80 195.15 49.80Q193.50 49.80 191.93 49.10Q190.35 48.40 189.05 47.10L188.85 47.10L189.20 51.15L189.20 58.40L181.85 58.40M193.45 43.80Q194.85 43.80 195.95 43.05Q197.05 42.30 197.70 40.68Q198.35 39.05 198.35 36.50Q198.35 34.25 197.85 32.78Q197.35 31.30 196.38 30.55Q195.40 29.80 193.80 29.80Q192.60 29.80 191.47 30.33Q190.35 30.85 189.20 32.10L189.20 42.15Q190.25 43 191.38 43.40Q192.50 43.80 193.45 43.80ZM224.75 49.80Q220.90 49.80 217.78 48.28Q214.65 46.75 212.82 43.83Q211 40.90 211 36.80Q211 32.75 212.85 29.83Q214.70 26.90 217.65 25.35Q220.60 23.80 223.90 23.80Q227.75 23.80 230.35 25.38Q232.95 26.95 234.28 29.63Q235.60 32.30 235.60 35.70Q235.60 36.70 235.47 37.63Q235.35 38.55 235.25 39L216.45 39L216.45 34.05L230.30 34.05L229.15 35.45Q229.15 32.45 227.88 30.93Q226.60 29.40 224.15 29.40Q222.35 29.40 221 30.20Q219.65 31.00 218.90 32.65Q218.15 34.30 218.15 36.80Q218.15 39.35 219.05 40.98Q219.95 42.60 221.65 43.40Q223.35 44.20 225.75 44.20Q227.45 44.20 228.97 43.75Q230.50 43.30 232.15 42.45L234.60 46.90Q232.45 48.25 229.85 49.03Q227.25 49.80 224.75 49.80ZM258 49.80Q253.35 49.80 250.95 47Q248.55 44.20 248.55 39.50L248.55 19.95L240.80 19.95L240.80 14.20L255.90 14.20L255.90 39.80Q255.90 42.10 257.15 42.98Q258.40 43.85 259.90 43.85Q260.80 43.85 261.73 43.65Q262.65 43.45 263.80 43.05L265.40 48.45Q263.50 49.05 261.93 49.43Q260.35 49.80 258 49.80ZM279.45 49.80Q276.95 49.80 275.13 48.80Q273.30 47.80 272.30 46.10Q271.30 44.40 271.30 42.30Q271.30 38.15 275.07 35.95Q278.85 33.75 287.65 33.25Q287.50 32.10 286.90 31.30Q286.30 30.50 285.18 30.08Q284.05 29.65 282.35 29.65Q281.15 29.65 279.95 29.93Q278.75 30.20 277.48 30.73Q276.20 31.25 274.80 31.95L272.20 27.15Q273.90 26.15 275.77 25.40Q277.65 24.65 279.68 24.23Q281.70 23.80 283.80 23.80Q287.30 23.80 289.80 25.03Q292.30 26.25 293.65 28.73Q295 31.20 295 35L295 49.20L289 49.20L288.45 46.40L288.25 46.40Q286.40 47.80 284.15 48.80Q281.90 49.80 279.45 49.80M281.80 44.10Q283.45 44.10 284.90 43.43Q286.35 42.75 287.65 41.75L287.65 37.65Q284 37.85 281.98 38.40Q279.95 38.95 279.15 39.80Q278.35 40.65 278.35 41.75Q278.35 42.50 278.77 43.05Q279.20 43.60 279.98 43.85Q280.75 44.10 281.80 44.10ZM313.05 49.80Q309.75 49.80 306.50 48.68Q303.25 47.55 300.90 46L304.05 41.40Q306.30 42.85 308.82 43.60Q311.35 44.35 314.05 44.35Q316.10 44.35 317.05 43.73Q318 43.10 318 42.25Q318 41.70 317.73 41.33Q317.45 40.95 316.77 40.63Q316.10 40.30 314.93 40Q313.75 39.70 311.90 39.30Q306.85 38.20 304.65 36.30Q302.45 34.40 302.45 31.55Q302.45 28.05 305.50 25.93Q308.55 23.80 313.85 23.80Q317.20 23.80 319.93 24.88Q322.65 25.95 324.60 27.20L321.30 31.60Q319.45 30.45 317.35 29.85Q315.25 29.25 313.20 29.25Q312.05 29.25 311.30 29.48Q310.55 29.70 310.15 30.18Q309.75 30.65 309.75 31.20Q309.75 32.20 311.05 32.67Q312.35 33.15 315.50 33.85Q319.30 34.70 321.45 35.80Q323.60 36.90 324.43 38.33Q325.25 39.75 325.25 41.80Q325.25 44.05 323.88 45.85Q322.50 47.65 319.77 48.73Q317.05 49.80 313.05 49.80Z"/></g></g></g></svg>